<?xml version="1.0" encoding="iso-8859-1"?>
<!-- Generator: Adobe Illustrator 19.0.0, SVG Export Plug-In . SVG Version: 6.00 Build 0)  -->
<svg version="1.1" id="Capa_1" xmlns="http://www.w3.org/2000/svg" xmlns:xlink="http://www.w3.org/1999/xlink" x="0px" y="0px"
	 viewBox="0 0 512 512" style="enable-background:new 0 0 512 512;" xml:space="preserve">
<g>
	<g>
		<path d="M505.791,93.846c-3.9-2.821-8.919-3.598-13.487-2.091l-85.879,28.312l-207.154-80.77
			c-0.192-0.075-0.387-0.146-0.582-0.213C183.053,33.72,166.672,31,150,31C67.29,31,0,98.29,0,181
			c0,51.371,25.962,96.786,65.449,123.832L42.237,409.288C34.051,446.124,62.096,481,99.762,481
			c27.832,0,51.487-18.976,57.525-46.145l9.904-44.567c19.557-1.625,41.716-6.919,53.994-11.718l3.588-1.406
			c4.65-1.822,8.088-5.838,9.171-10.712l13.932-62.699l158.55-61.818l85.879,28.312c4.551,1.502,9.573,0.74,13.487-2.091
			C509.69,265.333,512,260.813,512,256V106C512,101.187,509.69,96.667,505.791,93.846z M128.002,428.347
			C125.037,441.685,113.425,451,99.762,451c-18.527,0-32.249-17.156-28.239-35.204l21.357-96.107
			c17.51,7.238,36.674,11.258,56.756,11.306L128.002,428.347z M206.449,351.88c-10.954,3.522-21.681,6.001-32.385,7.477
			l7.019-31.586c5.955-1.256,11.832-2.873,17.606-4.854c0.195-0.067,0.39-0.138,0.582-0.213l14.957-5.832L206.449,351.88z
			 M391,215.749c-9.114,3.554-195.281,76.14-202.328,78.887C176.261,298.859,163.251,301,150,301c-66.168,0-120-53.832-120-120
			S83.832,61,150,61c13.251,0,26.261,2.141,38.672,6.364L391,146.251V215.749z M482,235.261l-61-20.11v-68.302l61-20.11V235.261z"/>
	</g>
</g>
<g>
	<g>
		<path d="M150,91c-49.626,0-90,40.374-90,90c0,49.626,40.374,90,90,90c49.626,0,90-40.374,90-90C240,131.374,199.626,91,150,91z
			 M150,241c-33.084,0-60-26.916-60-60s26.916-60,60-60s60,26.916,60,60S183.084,241,150,241z"/>
	</g>
</g>
<g>
	<g>
		<path d="M150,151c-16.542,0-30,13.458-30,30s13.458,30,30,30s30-13.458,30-30S166.542,151,150,151z"/>
	</g>
</g>
<g>
</g>
<g>
</g>
<g>
</g>
<g>
</g>
<g>
</g>
<g>
</g>
<g>
</g>
<g>
</g>
<g>
</g>
<g>
</g>
<g>
</g>
<g>
</g>
<g>
</g>
<g>
</g>
<g>
</g>
</svg>
